<svg width="28" height="24" viewBox="0 0 28 24" fill="none" xmlns="http://www.w3.org/2000/svg">
<g clip-path="url(#clip0_152_77)">
<path d="M18.6667 16V3H1.16675V16H18.6667ZM18.6667 16H26.8334V11L23.3334 8H18.6667V16ZM9.33342 18.5C9.33342 19.8807 8.02758 21 6.41675 21C4.80592 21 3.50008 19.8807 3.50008 18.5C3.50008 17.1193 4.80592 16 6.41675 16C8.02758 16 9.33342 17.1193 9.33342 18.5ZM24.5001 18.5C24.5001 19.8807 23.1942 21 21.5834 21C19.9726 21 18.6667 19.8807 18.6667 18.5C18.6667 17.1193 19.9726 16 21.5834 16C23.1942 16 24.5001 17.1193 24.5001 18.5Z" stroke="#5ABFEF" stroke-width="4" stroke-linecap="round" stroke-linejoin="round"/>
</g>
<defs>
<clipPath id="clip0_152_77">
<rect width="28" height="24" fill="white"/>
</clipPath>
</defs>
</svg>
