<svg width="36" height="37" viewBox="0 0 36 37" fill="none" xmlns="http://www.w3.org/2000/svg">
<path d="M25.729 23.5893H24.1029L23.5266 23.0337C25.6136 20.6139 26.7606 17.5245 26.7581 14.3294C26.7581 11.684 25.9735 9.09806 24.5034 6.8985C23.0333 4.69894 20.9437 2.98459 18.499 1.97224C16.0543 0.959897 13.3642 0.695021 10.7689 1.21111C8.17366 1.7272 5.78974 3.00108 3.91864 4.87165C2.04755 6.74222 0.773316 9.12547 0.257081 11.72C-0.259153 14.3146 0.00579691 17.0039 1.01843 19.4479C2.03106 21.892 3.74589 23.9809 5.94606 25.4506C8.14624 26.9203 10.7329 27.7048 13.3791 27.7048C16.693 27.7048 19.7393 26.4907 22.0858 24.4741L22.6415 25.0503V26.6759L32.9331 36.944L36 33.878L25.729 23.5893ZM13.3791 23.5893C8.25386 23.5893 4.11664 19.4532 4.11664 14.3294C4.11664 9.20565 8.25386 5.06959 13.3791 5.06959C18.5043 5.06959 22.6415 9.20565 22.6415 14.3294C22.6415 19.4532 18.5043 23.5893 13.3791 23.5893Z" fill="black"/>
</svg>
